<?xml version="1.0" encoding="utf-8"?>
<!-- Generator: Adobe Illustrator 16.0.0, SVG Export Plug-In . SVG Version: 6.00 Build 0)  -->
<!DOCTYPE svg PUBLIC "-//W3C//DTD SVG 1.1//EN" "http://www.w3.org/Graphics/SVG/1.1/DTD/svg11.dtd">
<svg version="1.1" id="Capa_1" xmlns="http://www.w3.org/2000/svg" xmlns:xlink="http://www.w3.org/1999/xlink" x="0px" y="0px"
	 width="545px" height="163.5px" viewBox="0 0 545 163.5" enable-background="new 0 0 545 163.5" xml:space="preserve">
<g id="Capa_2">
</g>
<g id="Capa_1_1_">
	<g>
		<g enable-background="new    ">
			<path fill="#FFFFFF" d="M175.223,50.817h8.597v64.675h-8.597V50.817z"/>
			<path fill="#FFFFFF" d="M212.851,72.375c5.952,0,11.021,2.116,15.21,6.349c4.232,4.189,6.348,9.258,6.348,15.209v21.56h-8.663
				v-21.56c0-3.57-1.256-6.613-3.769-9.125c-2.513-2.515-5.555-3.771-9.126-3.771c-3.571,0-6.613,1.257-9.126,3.771
				c-2.558,2.512-3.836,5.555-3.836,9.125v21.56h-8.597v-21.56c0-5.951,2.093-11.021,6.282-15.209
				C201.807,74.491,206.899,72.375,212.851,72.375z"/>
			<path fill="#FFFFFF" d="M271.839,106.896v8.597h-8.597c-5.952,0-11.044-2.095-15.276-6.282
				c-4.189-4.232-6.282-9.324-6.282-15.275V50.817h8.597v21.558h17.26v8.663h-17.26v12.896c0,3.571,1.278,6.613,3.836,9.127
				c2.513,2.559,5.555,3.836,9.126,3.836H271.839L271.839,106.896z"/>
			<path fill="#FFFFFF" d="M296.505,98.299h-7.868c0.881,2.557,2.424,4.607,4.629,6.149c2.248,1.632,4.76,2.446,7.539,2.446h21.557
				v8.598h-21.557c-5.953,0-11.045-2.094-15.277-6.282c-4.188-4.231-6.28-9.323-6.28-15.276c0-5.951,2.093-11.021,6.28-15.208
				c4.232-4.232,9.324-6.349,15.277-6.349c5.951,0,11.021,2.116,15.209,6.349c4.232,4.189,6.348,9.257,6.348,15.208v4.299h-25.854
				L296.505,98.299L296.505,98.299z M300.805,81.038c-2.779,0-5.291,0.794-7.539,2.381c-2.205,1.587-3.748,3.66-4.63,6.217h24.337
				c-0.884-2.557-2.426-4.63-4.631-6.217C306.094,81.832,303.581,81.038,300.805,81.038z"/>
			<path fill="#FFFFFF" d="M329.041,50.817h8.598v64.675h-8.598V50.817L329.041,50.817z"/>
			<path fill="#FFFFFF" d="M401.586,72.375c5.951,0,11.043,2.116,15.275,6.349c4.188,4.189,6.281,9.258,6.281,15.209v21.56h-8.598
				v-21.56c0-3.57-1.256-6.613-3.77-9.125c-2.559-2.515-5.621-3.771-9.191-3.771c-3.571,0-6.611,1.257-9.126,3.771
				c-2.515,2.512-3.771,5.555-3.771,9.125v21.56h-8.664v-21.56c0-3.57-1.256-6.613-3.77-9.125c-2.513-2.515-5.555-3.771-9.125-3.771
				c-3.572,0-6.613,1.257-9.127,3.771c-2.557,2.512-3.836,5.555-3.836,9.125v21.56h-8.596v-21.56c0-5.951,2.093-11.021,6.281-15.209
				c4.23-4.232,9.323-6.349,15.275-6.349c7.186,0,12.938,2.889,17.262,8.663C388.713,75.264,394.443,72.375,401.586,72.375z"/>
			<path fill="#FFFFFF" d="M453.102,72.375c5.951,0,11.021,2.116,15.211,6.349c4.23,4.189,6.35,9.258,6.35,15.209v21.56h-21.561
				c-5.949,0-11.044-2.095-15.274-6.282c-4.188-4.232-6.282-9.324-6.282-15.275s2.094-11.021,6.282-15.209
				C442.058,74.491,447.15,72.375,453.102,72.375z M465.996,93.934c0-3.569-1.256-6.613-3.771-9.125
				c-2.513-2.514-5.556-3.771-9.126-3.771c-3.569,0-6.611,1.257-9.126,3.771c-2.558,2.512-3.836,5.555-3.836,9.125
				c0,3.571,1.278,6.613,3.836,9.127c2.515,2.559,5.557,3.836,9.126,3.836h12.896V93.934z"/>
			<path fill="#FFFFFF" d="M494.896,81.038c-1.19,0-2.229,0.42-3.108,1.257c-0.838,0.838-1.256,1.852-1.256,3.042
				s0.418,2.205,1.256,3.042c0.882,0.838,1.918,1.257,3.108,1.257h17.192c3.57,0,6.635,1.257,9.191,3.769
				c2.514,2.516,3.77,5.558,3.77,9.128c0,3.569-1.256,6.636-3.77,9.19c-2.559,2.514-5.621,3.771-9.191,3.771h-30.156v-8.598h30.156
				c1.189,0,2.203-0.42,3.041-1.258c0.838-0.881,1.257-1.918,1.257-3.106c0-1.189-0.419-2.203-1.257-3.043
				c-0.838-0.837-1.852-1.257-3.041-1.257h-17.192c-3.571,0-6.638-1.256-9.192-3.77c-2.513-2.513-3.771-5.555-3.771-9.126
				c0-3.571,1.259-6.635,3.771-9.192c2.557-2.513,5.621-3.77,9.192-3.77h30.153v8.663H494.896L494.896,81.038z"/>
		</g>
		<path fill="#2196F3" d="M103.967,24.5H39.916C25.418,24.5,13,35.885,13,50.046v31.72v31.72c0,14.162,12.418,25.013,26.916,25.013
			h64.051c14.499,0,26.033-10.853,26.033-25.013V81.767v-31.72C130,35.885,118.466,24.5,103.967,24.5z M81.285,84.596
			c0,0-23.762,5.483-4.438,19.192c0,0-12.534-2.864-12.534-12.534c0-9.671,24.064-14.211,49.404-7.441
			C113.717,83.812,92.131,80.615,81.285,84.596z M63.956,77.829c0,0-29.344,9.122,3.098,27.918c0,0-24.676-2.72-24.676-17.14
			c0-14.419,38.987-27.004,76.771-16.917C119.149,71.693,79.979,70.209,63.956,77.829z M50.212,68.017
			c0,0-41.257,15.661,1.567,40.471c0,0-32.119-7.209-32.119-26.243s53.532-35.647,103.405-22.326
			C123.065,59.919,74.497,55.528,50.212,68.017z"/>
	</g>
</g>
<path fill="#FFFFFF" d="M50.212,68.017c0,0-41.257,15.661,1.567,40.471c0,0-32.119-7.209-32.119-26.243
	s53.532-35.647,103.405-22.326C123.065,59.919,74.497,55.528,50.212,68.017z"/>
<path fill="#FFFFFF" d="M63.956,77.829c0,0-29.344,9.122,3.098,27.918c0,0-24.676-2.72-24.676-17.14
	c0-14.419,38.987-27.004,76.771-16.917C119.149,71.693,79.979,70.209,63.956,77.829z"/>
<path fill="#FFFFFF" d="M81.285,84.596c0,0-23.762,5.483-4.438,19.192c0,0-12.534-2.864-12.534-12.534
	c0-9.671,24.064-14.211,49.404-7.441C113.717,83.812,92.131,80.615,81.285,84.596z"/>
</svg>
