<?xml version="1.0" encoding="utf-8"?>
<!-- Generator: Adobe Illustrator 16.0.0, SVG Export Plug-In . SVG Version: 6.00 Build 0)  -->
<!DOCTYPE svg PUBLIC "-//W3C//DTD SVG 1.1//EN" "http://www.w3.org/Graphics/SVG/1.1/DTD/svg11.dtd">
<svg version="1.1" id="Capa_1" xmlns="http://www.w3.org/2000/svg" xmlns:xlink="http://www.w3.org/1999/xlink" x="0px" y="0px"
	 width="151px" height="163.5px" viewBox="0 0 151 163.5" enable-background="new 0 0 151 163.5" xml:space="preserve">
<g id="Capa_2">
</g>
<g>
	<g id="Capa_1_1_">
		<g>
			<path fill="#2196F3" d="M107.967,24.75H43.916C29.418,24.75,17,36.135,17,50.296v31.72v31.72
				c0,14.162,12.418,25.014,26.916,25.014h64.051c14.499,0,26.033-10.854,26.033-25.014V82.018v-31.72
				C134,36.135,122.466,24.75,107.967,24.75z M85.285,84.846c0,0-23.762,5.484-4.438,19.193c0,0-12.534-2.865-12.534-12.535
				c0-9.67,24.064-14.21,49.404-7.441C117.717,84.062,96.131,80.866,85.285,84.846z M67.956,78.08c0,0-29.344,9.122,3.098,27.918
				c0,0-24.676-2.721-24.676-17.141c0-14.419,38.987-27.004,76.771-16.915C123.149,71.943,83.979,70.459,67.956,78.08z
				 M54.212,68.268c0,0-41.257,15.66,1.567,40.471c0,0-32.119-7.209-32.119-26.242c0-19.035,53.532-35.647,103.405-22.327
				C127.065,60.169,78.497,55.778,54.212,68.268z"/>
		</g>
	</g>
	<path fill="#FFFFFF" d="M54.212,68.268c0,0-41.257,15.66,1.567,40.471c0,0-32.119-7.209-32.119-26.242
		c0-19.035,53.532-35.647,103.405-22.327C127.065,60.169,78.497,55.778,54.212,68.268z"/>
	<path fill="#FFFFFF" d="M67.956,78.08c0,0-29.344,9.122,3.098,27.918c0,0-24.676-2.721-24.676-17.141
		c0-14.419,38.987-27.004,76.771-16.915C123.149,71.943,83.979,70.459,67.956,78.08z"/>
	<path fill="#FFFFFF" d="M85.285,84.846c0,0-23.762,5.484-4.438,19.193c0,0-12.534-2.865-12.534-12.535
		c0-9.67,24.064-14.21,49.404-7.441C117.717,84.062,96.131,80.866,85.285,84.846z"/>
</g>
</svg>
